<svg height="512pt" preserveAspectRatio="xMidYMid meet" viewBox="0 0 512 512" width="512pt" xmlns="http://www.w3.org/2000/svg"><g transform="matrix(.1 0 0 -.1 0 512)"><path d="m128 5113c7-3 16-2 19 1 4 3-2 6-13 5-11 0-14-3-6-6z"/><path d="m5111 4964c0-11 3-14 6-6 3 7 2 16-1 19-3 4-6-2-5-13z"/><path d="m3750 3970c-1102-4-1369-8-1388-18-13-7-32-28-42-45-19-30-20-53-20-399v-368l-48-24c-62-31-123-92-161-158l-30-52-581-1h-581l-30 53c-41 72-102 129-179 166-59 28-74 31-165 31-90 0-105-3-155-29-141-74-216-185-224-329-13-225 158-405 384-405 85 0 145 18 216 64 62 41 73 53 118 128l35 58h581c320 0 582-2 584-4 1-1 15-25 30-51 35-62 102-126 160-156l46-22v-365c0-403 0-406 63-444 31-19 57-20 939-20h907l6-37c13-83 67-233 112-312 155-273 422-453 735-496 32-4 48-11 51-23 3-9 5 51 6 133l1 151-27 2c-88 7-231 62-319 123-70 48-161 146-206 221-37 63-88 192-88 224 0 12 48 14 320 12l320-3v133c0 98-3 132-12 133-7 0-151 1-320 1-254 1-308 4-308 15 0 22 39 132 65 182 64 127 187 248 322 315 87 44 233 82 245 63 4-6 8 54 8 134v146l-77-13c-284-49-519-197-672-422-57-84-123-227-136-292-1-3-4-20-8-37-4-18-9-46-12-61l-6-29h-819c-451 0-821 3-821 6-1 3-3 131-4 283l-2 278 46 22c67 32 137 107 174 186 28 59 32 77 32 152 0 67-5 98-25 149-30 76-112 166-181 199l-45 22v282l1 283 1270 1c937 1 1272-1 1277-10 4-6 8 55 8 137 0 81-1 146-2 145-2-2-617-5-1368-8zm-3164-1086c85-40 89-158 9-213-77-53-185 8-185 104 0 35 6 51 30 79 42 47 89 57 146 30z"/><path d="m0 10c0-5 5-10 11-10 5 0 7 5 4 10-3 6-8 10-11 10-2 0-4-4-4-10z"/></g></svg>