<svg viewBox="0 0 447.32 181.63" xmlns="http://www.w3.org/2000/svg"><g fill="none" stroke="#4d4d4c" stroke-linecap="round" stroke-linejoin="round" stroke-width="10" transform="translate(-5.26 -5.26)"><path d="m75.23 75.72a8.73 8.73 0 1 1 8.77 8.72 8.72 8.72 0 0 1 -8.77-8.72z"/><path d="m84 75.72h-56.29"/><path d="m10.26 75.72a8.73 8.73 0 1 1 8.74 8.72 8.72 8.72 0 0 1 -8.74-8.72z"/><path d="m192.56 10.26v58.18"/><path d="m212.92 10.26v58.18"/><path d="m366.13 91.23a8.73 8.73 0 1 1 8.72 8.73 8.72 8.72 0 0 1 -8.72-8.73z"/><path d="m374.85 91.23h55.27"/><path d="m430.12 91.23a8.73 8.73 0 1 1 8.73 8.73 8.73 8.73 0 0 1 -8.73-8.73z"/><path d="m148.92 112.08a29.09 29.09 0 1 1 29.08 29.09 29.08 29.08 0 0 1 -29.08-29.09z"/><path d="m212.92 39.35h161.93v72.73h-290.85v-72.73h108.56"/><path d="m278.37 112.08a8.73 8.73 0 1 1 8.73 8.73 8.73 8.73 0 0 1 -8.73-8.73z"/><path d="m287.1 112.08v52.36"/><path d="m278.37 173.17a8.73 8.73 0 1 1 8.73 8.73 8.73 8.73 0 0 1 -8.73-8.73z"/></g></svg>